PathFileType	4	(X/Y/Z)	C:\Users\86182\Documents\cortex\Trimmed_M3_H16.trc
DataRate	CameraRate	NumFrames	NumMarkers	Units	OrigDataRate	OrigDataStartFrame	OrigNumFrames
100.00	100.00	       144	2	mm	100.00	1	       901
Frame#	Time	gripper			box			
		X1	Y1	Z1	X2	Y2	Z2	

1	0.000	268.27982	172.45274	192.41745	264.20972	168.34247	58.36244	
2	0.010	268.27844	172.45277	192.41542	264.21085	168.34184	58.36184	
3	0.020	268.27682	172.45303	192.41283	264.21191	168.34126	58.36129	
4	0.030	268.27521	172.45366	192.41006	264.21249	168.34090	58.36095	
5	0.040	268.27377	172.45459	192.40723	264.21265	168.34070	58.36078	
6	0.050	268.27277	172.45555	192.40442	264.21268	168.34053	58.36064	
7	0.060	268.27225	172.45616	192.40195	264.21271	168.34027	58.36048	
8	0.070	268.27203	172.45615	192.40024	264.21259	168.33984	58.36034	
9	0.080	268.27176	172.45554	192.39934	264.21210	168.33917	58.36033	
10	0.090	268.27121	172.45456	192.39897	264.21097	168.33824	58.36057	
11	0.100	268.27054	172.45352	192.39876	264.20917	168.33701	58.36114	
12	0.110	268.27002	172.45259	192.39853	264.20694	168.33548	58.36207	
13	0.120	268.26981	172.45183	192.39828	264.20474	168.33382	58.36329	
14	0.130	268.26981	172.45117	192.39795	264.20291	168.33234	58.36477	
15	0.140	268.26968	172.45056	192.39728	264.20154	168.33147	58.36634	
16	0.150	268.26935	172.45000	192.39600	264.20056	168.33145	58.36763	
17	0.160	268.26901	172.44954	192.39417	264.20001	168.33235	58.36829	
18	0.170	268.26889	172.44928	192.39224	264.19983	168.33386	58.36819	
19	0.180	268.26904	172.44926	192.39075	264.19998	168.33551	58.36745	
20	0.190	268.26935	172.44957	192.38983	264.20044	168.33691	58.36631	
21	0.200	268.26947	172.45024	192.38939	264.20117	168.33786	58.36502	
22	0.210	268.26935	172.45120	192.38953	264.20215	168.33846	58.36383	
23	0.220	268.26913	172.45226	192.39055	264.20313	168.33899	58.36300	
24	0.230	268.26898	172.45329	192.39253	264.20407	168.33965	58.36259	
25	0.240	268.26898	172.45428	192.39526	264.20493	168.34032	58.36248	
26	0.250	268.26932	172.45520	192.39844	264.20584	168.34088	58.36248	
27	0.260	268.27011	172.45575	192.40173	264.20670	168.34125	58.36249	
28	0.270	268.27145	172.45558	192.40475	264.20737	168.34145	58.36251	
29	0.280	268.27332	172.45448	192.40703	264.20789	168.34154	58.36252	
30	0.290	268.27536	172.45261	192.40833	264.20813	168.34158	58.36256	
31	0.300	268.27719	172.45038	192.40897	264.20792	168.34169	58.36273	
32	0.310	268.27832	172.44833	192.40936	264.20718	168.34189	58.36308	
33	0.320	268.27866	172.44685	192.40961	264.20612	168.34219	58.36352	
34	0.330	268.27829	172.44609	192.40945	264.20496	168.34250	58.36398	
35	0.340	268.27734	172.44603	192.40878	264.20383	168.34282	58.36443	
36	0.350	268.27588	172.44655	192.40784	264.20270	168.34314	58.36487	
37	0.360	268.27411	172.44745	192.40692	264.20166	168.34344	58.36528	
38	0.370	268.27240	172.44861	192.40607	264.20078	168.34369	58.36563	
39	0.380	268.27112	172.44991	192.40500	264.20013	168.34389	58.36588	
40	0.390	268.27048	172.45125	192.40359	264.19974	168.34401	58.36604	
41	0.400	268.27048	172.45250	192.40207	264.19955	168.34407	58.36611	
42	0.410	268.27130	172.45354	192.40097	264.19962	168.34406	58.36609	
43	0.420	268.27289	172.45430	192.40057	264.19992	168.34396	58.36597	
44	0.430	268.27472	172.45471	192.40082	264.20050	168.34378	58.36573	
45	0.440	268.27609	172.45467	192.40154	264.20142	168.34349	58.36536	
46	0.450	268.27646	172.45415	192.40274	264.20264	168.34311	58.36485	
47	0.460	268.27585	172.45335	192.40448	264.20413	168.34264	58.36423	
48	0.470	268.27478	172.45258	192.40677	264.20572	168.34215	58.36357	
49	0.480	268.27393	172.45213	192.40941	264.20731	168.34167	58.36293	
50	0.490	268.27371	172.45224	192.41206	264.20883	168.34122	58.36231	
51	0.500	268.27417	172.45287	192.41434	264.21017	168.34084	58.36178	
52	0.510	268.27512	172.45375	192.41592	264.21094	168.34065	58.36150	
53	0.520	268.27618	172.45456	192.41664	264.21085	168.34076	58.36159	
54	0.530	268.27719	172.45514	192.41649	264.20993	168.34113	58.36201	
55	0.540	268.27792	172.45570	192.41573	264.20840	168.34166	58.36267	
56	0.550	268.27832	172.45651	192.41470	264.20645	168.34229	58.36348	
57	0.560	268.27829	172.45763	192.41354	264.20435	168.34283	58.36428	
58	0.570	268.27795	172.45880	192.41208	264.20242	168.34319	58.36493	
59	0.580	268.27762	172.45963	192.41010	264.20084	168.34317	58.36531	
60	0.590	268.27731	172.45967	192.40762	264.19955	168.34273	58.36538	
61	0.600	268.27701	172.45874	192.40480	264.19858	168.34184	58.36514	
62	0.610	268.27652	172.45708	192.40182	264.19788	168.34056	58.36460	
63	0.620	268.27585	172.45517	192.39906	264.19754	168.33904	58.36386	
64	0.630	268.27515	172.45351	192.39694	264.19769	168.33763	58.36308	
65	0.640	268.27475	172.45230	192.39563	264.19852	168.33684	58.36245	
66	0.650	268.27490	172.45146	192.39508	264.19986	168.33698	58.36220	
67	0.660	268.27560	172.45085	192.39517	264.20139	168.33788	58.36232	
68	0.670	268.27664	172.45042	192.39566	264.20279	168.33905	58.36261	
69	0.680	268.27774	172.45009	192.39610	264.20416	168.34009	58.36284	
70	0.690	268.27869	172.44981	192.39592	264.20544	168.34079	58.36291	
71	0.700	268.27933	172.44963	192.39484	264.20642	168.34119	58.36288	
72	0.710	268.27966	172.44963	192.39310	264.20670	168.34140	58.36294	
73	0.720	268.27960	172.44984	192.39137	264.20609	168.34158	58.36319	
74	0.730	268.27899	172.45030	192.39040	264.20486	168.34175	58.36358	
75	0.740	268.27762	172.45102	192.39070	264.20352	168.34187	58.36398	
76	0.750	268.27548	172.45192	192.39227	264.20242	168.34189	58.36426	
77	0.760	268.27295	172.45300	192.39471	264.20178	168.34169	58.36430	
78	0.770	268.27072	172.45430	192.39766	264.20163	168.34116	58.36406	
79	0.780	268.26950	172.45580	192.40085	264.20190	168.34030	58.36351	
80	0.790	268.26978	172.45740	192.40370	264.20258	168.33926	58.36276	
81	0.800	268.27145	172.45898	192.40561	264.20367	168.33830	58.36192	
82	0.810	268.27396	172.46039	192.40639	264.20547	168.33768	58.36110	
83	0.820	268.27664	172.46155	192.40616	264.20789	168.33762	58.36040	
84	0.830	268.27893	172.46234	192.40504	264.21021	168.33810	58.36003	
85	0.840	268.28058	172.46266	192.40323	264.21149	168.33902	58.36016	
86	0.850	268.28149	172.46257	192.40117	264.21121	168.34010	58.36081	
87	0.860	268.28171	172.46227	192.39949	264.20944	168.34105	58.36185	
88	0.870	268.28116	172.46185	192.39871	264.20624	168.34151	58.36315	
89	0.880	268.28006	172.46140	192.39900	264.20145	168.34129	58.36473	
90	0.890	268.27875	172.46080	192.40018	264.19479	168.34027	58.36665	
91	0.900	268.27765	172.46007	192.40181	264.18616	168.33839	58.36895	
92	0.910	268.27704	172.45914	192.40353	264.17603	168.33582	58.37152	
93	0.920	268.27686	172.45802	192.40512	264.16562	168.33292	58.37409	
94	0.930	268.27692	172.45682	192.40646	264.15747	168.33057	58.37608	
95	0.940	268.27686	172.45575	192.40759	264.15582	168.33018	58.37651	
96	0.950	268.27655	172.45502	192.40854	264.16702	168.33382	58.37390	
97	0.960	268.27579	172.45454	192.40918	264.19934	168.34415	58.36629	
98	0.970	268.27472	172.45396	192.40941	264.26230	168.36420	58.35144	
99	0.980	268.27374	172.45314	192.40926	264.36459	168.39674	58.32727	
100	0.990	268.27338	172.45221	192.40892	264.51059	168.44316	58.29272	
101	1.000	268.27371	172.45151	192.40837	264.69495	168.50166	58.24903	
102	1.010	268.27460	172.45120	192.40753	264.89499	168.56499	58.20150	
103	1.020	268.27585	172.45140	192.40659	265.06171	168.61746	58.16167	
104	1.030	268.27725	172.45206	192.40596	265.12915	168.63805	58.14513	
105	1.040	268.27835	172.45300	192.40588	265.06345	168.61618	58.16000	
106	1.050	268.27875	172.45401	192.40634	264.89731	168.56262	58.19882	
107	1.060	268.27844	172.45497	192.40715	264.69525	168.49818	58.24652	
108	1.070	268.27789	172.45576	192.40813	264.50433	168.43777	58.29194	
109	1.080	268.27740	172.45624	192.40892	264.34500	168.38762	58.33009	
110	1.090	268.27713	172.45619	192.40926	264.22079	168.34860	58.35995	
111	1.100	268.27701	172.45567	192.40933	264.12683	168.31898	58.38260	
112	1.110	268.27701	172.45509	192.40964	264.05637	168.29649	58.39954	
113	1.120	268.27689	172.45526	192.41075	264.00610	168.27994	58.41151	
114	1.130	268.27606	172.45705	192.41336	263.97964	168.27046	58.41763	
115	1.140	268.27362	172.46115	192.41823	263.99020	168.27235	58.41477	
116	1.150	268.26865	172.46803	192.42584	264.06155	168.29350	58.39732	
117	1.160	268.26038	172.47766	192.43597	264.22702	168.34494	58.35744	
118	1.170	268.24872	172.48936	192.44789	264.52539	168.43929	58.28592	
119	1.180	268.23416	172.50198	192.46104	264.99127	168.58743	58.17435	
120	1.190	268.21790	172.51402	192.47522	265.63812	168.79329	58.01917	
121	1.200	268.20145	172.52377	192.48993	266.43286	169.04597	57.82786	
122	1.210	268.18616	172.52957	192.50436	267.28027	169.31485	57.62257	
123	1.220	268.17307	172.53033	192.51819	268.05496	169.55930	57.43261	
124	1.230	268.16272	172.52583	192.53259	268.66742	169.74875	57.27863	
125	1.240	268.15512	172.51671	192.55060	269.09631	169.87091	57.16445	
126	1.250	268.14990	172.50414	192.57678	269.37277	169.92459	57.08019	
127	1.260	268.14703	172.48900	192.61658	269.55566	169.91110	57.00809	
128	1.270	268.14682	172.47177	192.67595	269.71445	169.83037	56.92730	
129	1.280	268.14948	172.45297	192.76044	269.91586	169.68047	56.81807	
130	1.290	268.15427	172.43378	192.87405	270.21054	169.45935	56.66664	
131	1.300	268.15982	172.41566	193.01874	270.61884	169.17114	56.47256	
132	1.310	268.16559	172.39951	193.19504	271.11502	168.83795	56.25999	
133	1.320	268.17206	172.38530	193.40263	271.60785	168.51511	56.09261	
134	1.330	268.17990	172.37309	193.64119	271.94455	168.29131	56.07273	
135	1.340	268.18878	172.36382	193.91107	271.99670	168.24135	56.28608	
136	1.350	268.19785	172.35909	194.21262	271.77896	168.35982	56.72277	
137	1.360	268.20651	172.36026	194.54417	271.44269	168.56377	57.27961	
138	1.370	268.21490	172.36784	194.90166	271.14420	168.76376	57.84550	
139	1.380	268.22354	172.38098	195.28023	270.94980	168.91629	58.36636	
140	1.390	268.23181	172.39828	195.67548	270.82773	169.03151	58.85522	
141	1.400	268.23770	172.41943	196.08365	270.68912	169.15428	59.36710	
142	1.410	268.23929	172.44540	196.50204	270.47165	169.31828	59.94128	
143	1.420	268.23694	172.47676	196.92967	270.19476	169.51265	60.56207	
144	1.430	268.23254	172.51160	197.36649	269.91907	169.70230	61.18560	
